{"title":"WWE.Friday.Night.SmackDown.2014-04-18.XVID [P2PDL]","uid":9988710,"size":1568659700,"categoryP":"video","categoryS":"tv_shows","magnet":"?xt=urn:btih:08905a63d134410025d2d5fe3d4941e55f0184b1&amp;dn=WWE.Friday.Night.SmackDown.2014-04-18.XVID+%5BP2PDL%5D&amp;tr=udp%3A%2F%2Ftracker.openbittorrent.com%3A80&amp;tr=udp%3A%2F%2Fopen.demonii.com%3A1337&amp;tr=udp%3A%2F%2Ftracker.coppersurfer.tk%3A6969&amp;tr=udp%3A%2F%2Fexodus.desync.com%3A6969","seeders":0,"leechers":1,"uploader":"TeX","files":1,"time":1397780848,"description":"Format                        : AVI \nFormat/Info                    : Audio Video Interleave \nFormat profile                : OpenDML \nFile size                      : 1.46 GiB \nDuration                      : 1h 35mn \nOverall bit rate              : 2 186 Kbps \nWriting application            : Lavf55.33.100 \n\nVideo \nID                            : 0 \nFormat                        : MPEG-4 Visual \nFormat profile                : Advanced Simple@L5 \nFormat settings, BVOP          : No \nFormat settings, QPel          : No \nFormat settings, GMC          : No warppoints \nFormat settings, Matrix        : Default (H.263) \nCodec ID                      : XVID \nCodec ID/Hint                  : XviD \nDuration                      : 1h 35mn \nBit rate                      : 1 790 Kbps \nWidth                          : 720 pixels \nHeight                        : 400 pixels \nDisplay aspect ratio          : 16:9 \nFrame rate                    : 25.000 fps \nColor space                    : YUV \nChroma subsampling            : 4:2:0 \nBit depth                      : 8 bits \nScan type                      : Progressive \nCompression mode              : Lossy \nBits/(Pixel*Frame)            : 0.249 \nStream size                    : 1.20 GiB (82%) \nWriting library                : XviD 64 \n\nAudio \nID                            : 1 \nFormat                        : AC-3 \nFormat/Info                    : Audio Coding 3 \nMode extension                : CM (complete main) \nFormat settings, Endianness    : Big \nCodec ID                      : 2000 \nDuration                      : 1h 35mn \nBit rate mode                  : Constant \nBit rate                      : 384 Kbps \nChannel(s)                    : 2 channels \nChannel positions              : Front: L R \nSampling rate                  : 48.0 KHz \nBit depth                      : 16 bits \nCompression mode              : Lossy \nStream size                    : 263 MiB (18%) \nAlignment                      : Aligned on interleaves \nInterleave, duration          : 32 ms (0.80 video frame) \n","torrent":{"xt":"urn:btih:08905a63d134410025d2d5fe3d4941e55f0184b1","amp;dn":"WWE.Friday.Night.SmackDown.2014-04-18.XVID+%5BP2PDL%5D","amp;tr":["udp%3A%2F%2Ftracker.openbittorrent.com%3A80","udp%3A%2F%2Fopen.demonii.com%3A1337","udp%3A%2F%2Ftracker.coppersurfer.tk%3A6969","udp%3A%2F%2Fexodus.desync.com%3A6969"],"infoHash":"08905a63d134410025d2d5fe3d4941e55f0184b1","infoHashBuffer":{"type":"Buffer","data":[8,144,90,99,209,52,65,0,37,210,213,254,61,73,65,229,95,1,132,177]},"announce":[],"urlList":[]}}